<?xml version="1.0" encoding="UTF-8" standalone="no"?>
<!-- Created with Inkscape (http://www.inkscape.org/) -->

<svg
   version="1.1"
   id="svg2"
   width="150"
   height="150"
   viewBox="0 0 150 150"
   sodipodi:docname="posting-helper-icon.svg"
   inkscape:version="1.1.2 (0a00cf5339, 2022-02-04)"
   xmlns:inkscape="http://www.inkscape.org/namespaces/inkscape"
   xmlns:sodipodi="http://sodipodi.sourceforge.net/DTD/sodipodi-0.dtd"
   xmlns="http://www.w3.org/2000/svg"
   xmlns:svg="http://www.w3.org/2000/svg">
  <defs
     id="defs6" />
  <sodipodi:namedview
     id="namedview4"
     pagecolor="#505050"
     bordercolor="#ffffff"
     borderopacity="1"
     inkscape:pageshadow="0"
     inkscape:pageopacity="0"
     inkscape:pagecheckerboard="1"
     showgrid="false"
     inkscape:zoom="2.8284271"
     inkscape:cx="77.074639"
     inkscape:cy="97.227182"
     inkscape:window-width="1852"
     inkscape:window-height="1002"
     inkscape:window-x="68"
     inkscape:window-y="41"
     inkscape:window-maximized="1"
     inkscape:current-layer="g8" />
  <g
     inkscape:groupmode="layer"
     inkscape:label="Image"
     id="g8"
     style="display:none" />
  <g
     inkscape:groupmode="layer"
     id="layer1"
     inkscape:label="white"
     style="display:inline"
     sodipodi:insensitive="true">
    <path
       style="fill:#fdfcfc;stroke-width:0.666667"
       d="M 0,75 V 0 h 75 75 v 75 75 H 75 0 Z"
       id="path895" />
  </g>
  <g
     inkscape:groupmode="layer"
     id="g1099"
     inkscape:label="red copy"
     style="display:inline"
     sodipodi:insensitive="true">
    <path
       id="path4200"
       style="fill:#9c1414;fill-opacity:1;stroke-width:0.666667"
       d="m 32.283203,102.2168 c -0.808266,0.009 -1.759736,0.37402 -3.412109,1.19336 -3.173122,1.57339 -3.206865,1.62616 -3.408203,5.14453 -0.120494,2.10563 0.128507,3.95184 0.609375,4.53125 0.550054,0.66278 1.796283,0.914 3.867187,0.77929 2.751504,-0.17898 3.16939,-0.43028 4.193359,-2.53125 0.625471,-1.28333 1.150359,-3.61544 1.167969,-5.18164 0.02686,-2.38842 -0.230253,-2.9677 -1.595703,-3.58984 -0.503534,-0.22943 -0.936915,-0.35132 -1.421875,-0.3457 z m 4.671875,7.90234 c -0.821966,-0.003 -1.621094,0.70586 -1.621094,1.85938 0,0.74484 -0.225,1.3657 -0.5,1.3789 -0.275,0.0132 -1.378873,0.74295 -2.453125,1.6211 -2.486394,2.03251 -1.618589,3.35191 2.625,3.98828 1.629639,0.24437 3.123326,0.7047 3.320313,1.02343 0.196987,0.31873 1.479716,0.91806 2.849609,1.33204 1.369893,0.41396 4.310518,1.68958 6.535157,2.83398 3.820185,1.96517 6.289062,2.1771 6.289062,0.54102 0,-0.3729 -1.725651,-1.55257 -3.833984,-2.6211 -2.108334,-1.06853 -4.560306,-2.72236 -5.449219,-3.67578 l -2.527344,-2.39844 -0.742187,-0.64648 -1.222657,-1.60547 c -0.673108,-0.88308 -1.543518,-2.14173 -1.933593,-2.79688 -0.341546,-0.57363 -0.842758,-0.83202 -1.335938,-0.83398 z m -19.289062,18.44336 -3.513672,3.01758 c -5.6718136,4.87101 -8.6107739,8.92866 -7.8691409,10.86133 0.5550444,1.44642 1.9070005,0.76666 2.9648438,-1.49024 1.1575971,-2.46973 5.8593831,-7.43135 8.2187501,-8.67187 4.21676,-2.2171 11.241783,-0.40428 20.867187,5.38281 1.466667,0.8818 3.415365,1.9468 4.332032,2.36719 2.199427,1.00867 9.144311,0.44704 11.863281,-0.95899 1.914185,-0.98986 2.136719,-1.41136 2.136719,-4.04492 0,-3.97673 -1.024223,-6.52025 -2.501954,-6.21484 -0.73452,0.1518 -1.08265,0.72409 -0.943359,1.54883 0.931268,5.51405 0.930784,5.51133 -0.507812,6.28124 -0.780169,0.41754 -2.92585,0.9379 -4.769532,1.15626 -2.760398,0.32692 -3.687388,0.14994 -5.248047,-1.00391 -1.04237,-0.77065 -2.677851,-1.59771 -3.634765,-1.83789 -0.956914,-0.24016 -1.900444,-0.69654 -2.097656,-1.01563 -0.197214,-0.3191 -2.370469,-1.53913 -4.828125,-2.71093 -3.465625,-1.65238 -5.590881,-2.19073 -9.46875,-2.39844 z" />
  </g>
  <g
     inkscape:groupmode="layer"
     id="layer2"
     inkscape:label="red"
     style="display:inline"
     sodipodi:insensitive="true">
    <path
       id="path1720"
       style="fill:#9c1414;stroke-width:0.666667"
       d="M 78.738281,4.375 C 77.464353,4.3732321 76.170589,4.4753659 74.867188,4.6875 61.477167,6.8667816 53.94223,17.923771 52.863281,36.976562 c -1.113883,19.669708 5.659863,34.809194 17.619141,39.376954 1.71056,0.653333 4.56587,0.904896 8.908203,0.785156 5.953973,-0.16418 6.656672,-0.334301 10.261719,-2.490234 C 99.287397,68.886358 104.04276,57.806395 104.09766,41 104.13024,31.023075 102.92894,24.525705 99.892578,18.271484 95.649184,9.531059 87.655781,4.3873751 78.738281,4.375 Z m 49.595699,0.099609 c -7.11718,-0.043167 -12.52918,3.3285487 -15.82812,9.859375 -0.97602,1.932204 -2.73585,8.99266 -2.33984,9.388672 0.10692,0.106923 2.47015,0.40044 5.25,0.652344 l 5.05273,0.457031 0.42578,-2.65039 C 121.50835,18.343045 124.08768,16 127.69922,16 c 2.34906,0 3.14579,0.352733 4.53516,2.003906 3.20171,3.805033 2.91433,11.391413 -0.55469,14.650391 -1.206,1.132979 -2.68865,1.653027 -5.3418,1.873047 l -3.67187,0.304687 V 40.416016 46 L 125.5,46.002 c 3.37797,0.0012 6.91882,1.667061 8.69531,4.091797 1.72993,2.361215 1.77156,9.833027 0.0703,12.447266 -1.79041,2.751258 -3.00627,3.416928 -6.26562,3.423828 -4.31203,0.0092 -6.88758,-2.44948 -7.99219,-7.63086 -0.41631,-1.952738 -0.51191,-1.996406 -4.05078,-1.830078 -7.38151,0.346934 -7.50419,0.521691 -5.30859,7.591797 2.37126,7.63579 6.85116,12.147078 13.12109,13.212891 9.42136,1.601507 16.88479,-1.882036 20.31445,-9.480469 1.33581,-2.95949 1.57808,-4.565719 1.58008,-10.494141 0.002,-5.977711 -0.2165,-7.408352 -1.49218,-9.794922 -1.60254,-2.99805 -4.62032,-5.646197 -7.8418,-6.878906 l -1.9961,-0.763672 2,-0.86914 c 2.88895,-1.2562 6.11807,-4.918027 7.30469,-8.28125 1.29979,-3.683998 1.32169,-10.852055 0.0469,-15.125 C 141.63839,8.7592808 135.80078,4.5198964 128.33398,4.474609 Z M 28.666016,5.4394531 c -0.729134,-0.00465 -1.51362,0.00651 -2.320313,0.033203 L 20.478516,5.6660156 11.257812,41.666016 c -5.0715065,19.8 -9.2303039,36.225 -9.2402339,36.5 -0.00993,0.275 2.3480435,0.5 5.2382813,0.5 H 12.509766 L 14.791016,69.5 l 2.28125,-9.166016 9.71289,-0.185546 9.714844,-0.183594 0.779297,3.183594 c 0.429177,1.751204 0.937443,3.709895 1.128906,4.351562 0.158365,0.813598 1.23657,5.247782 1.599609,6.666016 0.398902,1.558333 0.850185,3.209635 1.003907,3.667968 0.190558,0.56816 1.877551,0.832032 5.300781,0.832032 5.431419,0 5.48703,-0.049 4.400391,-3.837891 C 50.680601,74.715531 50.651627,74.608078 50.623047,74.5 50.147599,73.404206 49.146697,68.427815 48.71875,66.792969 48.364611,65.440083 44.752153,51.29189 40.691406,35.353516 36.630659,19.415142 33.061516,6.1279221 32.759766,5.8261719 32.533452,5.5998592 30.853416,5.453408 28.666016,5.4394531 Z M 78.8125,16.134766 c 8.746376,0.02572 14.485575,9.252977 14.503906,24.199218 0.01411,11.508555 -2.679323,19.649148 -7.658203,23.148438 -4.843414,3.404079 -11.258334,2.985258 -15.552734,-1.017578 -4.940578,-4.605147 -7.545659,-16.586304 -6.115235,-28.13086 1.237695,-9.989091 4.931351,-15.966037 10.898438,-17.636718 1.364326,-0.381988 2.674346,-0.566174 3.923828,-0.5625 z m -51.890625,2.027343 c 0.105289,-0.02338 0.150734,0.388916 0.248047,0.837891 0.158947,0.733333 1.759542,7.506319 3.558594,15.050781 C 32.527568,41.595243 34,47.969593 34,48.216797 c 0,0.247205 -3.15,0.449219 -7,0.449219 -6.399214,0 -7,-0.105691 -7,-1.248047 0,-0.687282 1.353351,-6.912934 3.007812,-13.833985 2.97656,-12.451731 3.644992,-15.362114 3.914063,-15.421875 z" />
  </g>
  <g
     inkscape:groupmode="layer"
     id="layer3"
     inkscape:label="black"
     style="display:inline"
     sodipodi:insensitive="true">
    <path
       style="fill:#000000;fill-opacity:1;stroke-width:0.666667"
       d="m 102.36303,142.98097 c -1.08368,-0.57422 -3.258677,-1.22062 -4.833337,-1.43645 -1.574666,-0.21583 -2.863026,-0.52137 -2.863026,-0.67897 0,-1.09908 1.712133,-3.02762 3.51976,-3.96464 l 2.146903,-1.1129 -3.999997,-0.83706 c -3.978873,-0.83263 -7.622126,-2.23558 -9.816373,-3.78012 -0.907847,-0.63904 -1.609073,-0.62182 -3.333333,0.0819 C 81.982633,131.74282 80.1,132.33647 79,132.57192 c -1.861407,0.39841 -1.750806,0.73322 -1.765592,3.5168 -0.01186,2.23285 -0.140228,2.9279 -1.246135,3.23543 -0.73105,0.20329 -1.699487,-0.19124 -3.077673,-1.27536 -1.276341,-1.00397 -2.72492,-1.38212 -5.294493,-1.38212 -1.94558,0 -3.734511,-0.31891 -3.975403,-0.70868 -0.713454,-1.15439 1.399787,-2.91377 4.653889,-3.87459 C 71.656933,131.09061 71.92168,130.45672 70,128 c -0.717027,-0.91667 -1.310353,-2.01152 -1.318507,-2.43301 -0.0082,-0.42148 -1.064826,-2.32663 -2.34816,-4.23366 C 65.05,119.42631 64,117.69948 64,117.49593 c 0,-0.20354 -0.77948,-1.39202 -1.732177,-2.64108 -1.94965,-2.55612 -4.491369,-3.77728 -6.70542,-3.22158 -1.239338,0.31105 -1.805444,0.90236 -1.692688,3.53697 0.07816,1.82613 0.339004,3.28304 -0.539681,3.51541 -0.878684,0.23238 -3.091008,-0.77959 -6.663367,-1.51454 -1.460191,-0.30041 -2.96651,-0.14188 -3.857843,-0.42537 -0.857702,-0.27279 -1.19036,-0.93504 -1.19036,-1.24327 0,-0.51784 2.114343,-2.46356 4.082466,-3.66142 2.734714,-1.66444 3.632403,-2.47266 3.632403,-3.93081 0,-1.95701 -1.886688,-3.63373 -5.883671,-5.22891 -1.219352,-0.48664 -3.115049,-2.00229 -4.212659,-3.368117 -1.554783,-1.93472 -2.603096,-2.5648 -4.745312,-2.852133 -2.33832,-0.313633 -3.11493,-0.07951 -5.191378,1.565073 -1.342946,1.063634 -3.254434,2.242877 -4.24775,2.620527 -2.607688,0.99144 -19.9081809,0.8977 -20.9192297,-0.11335 -1.1541688,-1.154163 -1.0084686,-8.863077 0.2121258,-11.223443 0.5566692,-1.07648 1.6816692,-2.094394 2.5000002,-2.262034 6.1340287,-1.256586 8.5006837,-1.704093 10.8819197,-2.05764 2.84321,-0.42214 4.824829,-2.457346 9.110586,-9.356946 1.152194,-1.854907 2.92999,-3.367814 5.67959,-4.833334 3.655895,-1.948573 4.525516,-2.133266 10.044394,-2.133266 3.32309,0 6.881096,0.360373 7.906682,0.800826 3.002369,1.289427 5.575072,3.248814 6.272954,4.777534 0.35695,0.7819 1.054401,2.127966 1.54989,2.991253 1.059912,1.84668 6.430846,7.430387 7.147242,7.430387 0.271942,0 1.784483,0.868046 3.361196,1.928986 1.576714,1.06094 4.48034,2.406234 6.452494,2.989527 1.97216,0.5833 3.92216,1.33616 4.333333,1.67302 0.41118,0.336867 2.997593,1.284807 5.747593,2.106533 2.75,0.821727 6.558787,2.350827 8.463967,3.397994 1.90518,1.047166 4.086767,1.90394 4.847973,1.90394 0.7612,0 3.392647,0.910766 5.847657,2.023923 l 4.46366,2.02392 5.35504,-2.63018 C 120.07379,97.254193 130.06591,94 132.99381,94 c 4.53255,0 13.04186,3.575307 14.35675,6.03219 1.03194,1.9282 0.75428,9.00881 -0.47532,12.12098 -2.57643,6.52108 -6.86779,9.58678 -14.39849,10.28612 -4.50494,0.41836 -7.1938,-0.62231 -11.47675,-4.44183 C 119.23424,116.42276 114.82964,114 113.73258,114 c -0.21959,0 -0.39925,3.42479 -0.39925,7.61065 v 7.61064 l -2.59593,2.05602 c -1.42777,1.13082 -2.92777,2.05602 -3.33333,2.05602 -1.31198,0 -0.7842,2.3383 1.13655,5.03534 2.78552,3.91132 2.48903,5.25641 -1.20729,5.47716 -1.76757,0.10556 -3.80942,-0.24972 -4.9703,-0.86486 z m 1.91871,-11.53522 c 1.43829,-0.37982 3.38829,-1.26666 4.33333,-1.97078 1.56997,-1.16972 1.73722,-1.76328 1.93788,-6.87758 C 111.0577,109.73282 108.60169,104.53101 101,102.36426 98.8,101.73718 95.5,100.50717 93.666667,99.63092 91.833333,98.75466 87.933333,97.243573 85,96.272947 82.066667,95.302313 79.330253,94.239113 78.919073,93.91028 78.5079,93.58144 76.5579,92.835147 74.58574,92.251847 72.613587,91.668553 69.70996,90.32326 68.133247,89.26232 c -1.576717,-1.06094 -3.10948,-1.928987 -3.406142,-1.928987 -1.787076,0 -9.539092,-8.607973 -10.865363,-12.065093 -0.798105,-2.080373 -6.159746,-3.93538 -11.354477,-3.928393 -7.230408,0.0097 -10.86008,1.907073 -14.754874,7.712853 l -3.014734,4.493913 1.342796,1.707087 c 1.510439,1.920213 6.491268,5.405753 7.731039,5.410113 0.44632,0.0013 3.090889,2.252854 5.876821,5.002854 2.78593,2.75 5.494895,5.000003 6.01992,5.000003 0.525026,0 2.155457,1.0849 3.62318,2.4109 C 51.240579,104.80239 52,106.02185 52,107.36274 c 0,1.86103 0.02471,1.87179 3.5,1.5241 3.125641,-0.3127 3.793157,-0.136 6.240815,1.652 1.666683,1.2175 3.697875,3.71353 5.182905,6.36901 1.343147,2.40178 2.7117,4.53349 3.041227,4.73715 0.329526,0.20366 0.78922,1.23574 1.021546,2.29352 0.232327,1.05777 1.005407,2.45083 1.71796,3.09568 C 73.417007,127.67905 74,128.61015 74,129.10333 c 0,1.2459 5.366213,1.18329 7.039247,-0.0821 1.870153,-1.41451 5.45108,-1.23893 8.09818,0.39707 5.012813,3.09808 9.045653,3.638 15.144313,2.02748 z M 38.000281,82.333673 C 37.386959,81.594667 37.333976,81.066027 37.824108,80.575893 38.920377,79.47962 41,80.19388 41,81.666667 c 0,1.656166 -1.839357,2.065153 -2.999719,0.667006 z"
       id="path891"
       sodipodi:nodetypes="sssscsscsssssssscsssssssssssssssssssssssssssssssssscsssssssscsssssssssssssssscscscsssssssssssssssssss" />
  </g>
</svg>
